<svg width="21" height="21" viewBox="0 0 21 21" fill="none" xmlns="http://www.w3.org/2000/svg">
<path fill-rule="evenodd" clip-rule="evenodd" d="M17.4719 1.57235H16.7731V0.69882C16.7731 0.31288 16.4602 0 16.0742 0C15.6883 0 15.3754 0.31287 15.3754 0.69882V1.57235H4.89175V0.69882C4.89175 0.31288 4.57888 0 4.19292 0C3.80697 0 3.49411 0.31287 3.49411 0.69882V1.57235H2.7953C1.25149 1.57235 0 2.82384 0 4.36763V17.2985C0 18.8423 1.2515 20.0938 2.7953 20.0938H17.4733C19.0171 20.0938 20.2686 18.8423 20.2686 17.2985L20.2685 4.36763C20.2685 2.82331 19.0162 1.5716 17.4719 1.57235H17.4719ZM18.5201 16.9491C18.5201 17.721 17.8944 18.3468 17.1225 18.3468H3.14334C2.37144 18.3468 1.7457 17.721 1.7457 16.9491V5.76663H18.5201L18.5201 16.9491Z" fill="#BAC2CB"/>
</svg>
