<svg width="27" height="27" viewBox="0 0 27 27" fill="none" xmlns="http://www.w3.org/2000/svg">
<path fill-rule="evenodd" clip-rule="evenodd" d="M13.8981 20.0551C15.4981 19.2331 21.375 15.8259 21.375 10.125C21.375 5.77576 17.8492 2.25 13.5 2.25C9.15076 2.25 5.625 5.77576 5.625 10.125C5.625 15.8259 11.5019 19.2331 13.1019 20.0551C13.3553 20.1853 13.6447 20.1853 13.8981 20.0551ZM13.5 13.5C15.364 13.5 16.875 11.989 16.875 10.125C16.875 8.26104 15.364 6.75 13.5 6.75C11.636 6.75 10.125 8.26104 10.125 10.125C10.125 11.989 11.636 13.5 13.5 13.5Z" fill="#BAC2CB"/>
<path d="M20.3199 18.5625C21.0111 19.0756 21.375 19.6576 21.375 20.25C21.375 20.8424 21.0111 21.4244 20.32 21.9375C19.6288 22.4506 18.6347 22.8766 17.4375 23.1728C16.2403 23.4691 14.8824 23.625 13.5 23.625C12.1176 23.625 10.7597 23.4691 9.5625 23.1728C8.36535 22.8766 7.37123 22.4506 6.68005 21.9375C5.98887 21.4244 5.625 20.8424 5.625 20.25C5.625 19.6576 5.98887 19.0756 6.68005 18.5625" stroke="#BAC2CB" stroke-width="2" stroke-linecap="round"/>
</svg>
